{
    "asset" : {
        "generator" : "Khronos glTF Blender I/O v1.6.16",
        "version" : "2.0"
    },
    "scene" : 0,
    "scenes" : [
        {
            "name" : "Scene",
            "nodes" : [
                0,
                1,
                2,
                3
            ]
        }
    ],
    "nodes" : [
        {
            "mesh" : 0,
            "name" : "Torus",
            "translation" : [
                -5.516051769256592,
                0,
                0
            ]
        },
        {
            "mesh" : 1,
            "name" : "Cube",
            "translation" : [
                -2.227207660675049,
                0,
                0
            ]
        },
        {
            "mesh" : 2,
            "name" : "Plane",
            "rotation" : [
                0,
                -0.3826834559440613,
                0,
                0.9238795042037964
            ],
            "translation" : [
                1.1823537349700928,
                0,
                0.3589451014995575
            ]
        },
        {
            "mesh" : 3,
            "name" : "Cube.002",
            "rotation" : [
                0,
                -0.3826834559440613,
                0,
                0.9238795042037964
            ],
            "scale" : [
                1.269281268119812,
                1.269281268119812,
                1.269281268119812
            ],
            "translation" : [
                5.062557697296143,
                0,
                0
            ]
        }
    ],
    "materials" : [
        {
            "doubleSided" : true,
            "name" : "Material.001",
            "pbrMetallicRoughness" : {
                "baseColorFactor" : [
                    0,
                    0.7454044222831726,
                    1,
                    1
                ],
                "metallicFactor" : 0,
                "roughnessFactor" : 0.5
            }
        }
    ],
    "meshes" : [
        {
            "name" : "Torus",
            "primitives" : [
                {
                    "attributes" : {
                        "POSITION" : 0,
                        "NORMAL" : 1,
                        "TEXCOORD_0" : 2
                    },
                    "indices" : 3,
                    "material" : 0
                }
            ]
        },
        {
            "name" : "Cube.001",
            "primitives" : [
                {
                    "attributes" : {
                        "POSITION" : 4,
                        "NORMAL" : 5,
                        "TEXCOORD_0" : 6
                    },
                    "indices" : 7,
                    "material" : 0
                }
            ]
        },
        {
            "name" : "Plane",
            "primitives" : [
                {
                    "attributes" : {
                        "POSITION" : 8,
                        "NORMAL" : 9,
                        "TEXCOORD_0" : 10
                    },
                    "indices" : 11,
                    "material" : 0
                }
            ]
        },
        {
            "name" : "Cube.005",
            "primitives" : [
                {
                    "attributes" : {
                        "POSITION" : 12,
                        "NORMAL" : 13,
                        "TEXCOORD_0" : 14
                    },
                    "indices" : 15,
                    "material" : 0
                }
            ]
        }
    ],
    "accessors" : [
        {
            "bufferView" : 0,
            "componentType" : 5126,
            "count" : 637,
            "max" : [
                1.1271859407424927,
                0.1286742091178894,
                1.1271860599517822
            ],
            "min" : [
                -1.1271861791610718,
                -0.1286742091178894,
                -1.1271860599517822
            ],
            "type" : "VEC3"
        },
        {
            "bufferView" : 1,
            "componentType" : 5126,
            "count" : 637,
            "type" : "VEC3"
        },
        {
            "bufferView" : 2,
            "componentType" : 5126,
            "count" : 637,
            "type" : "VEC2"
        },
        {
            "bufferView" : 3,
            "componentType" : 5123,
            "count" : 3456,
            "type" : "SCALAR"
        },
        {
            "bufferView" : 4,
            "componentType" : 5126,
            "count" : 371,
            "max" : [
                1,
                0.12261968851089478,
                1
            ],
            "min" : [
                -1,
                -0.12261968851089478,
                -1
            ],
            "type" : "VEC3"
        },
        {
            "bufferView" : 5,
            "componentType" : 5126,
            "count" : 371,
            "type" : "VEC3"
        },
        {
            "bufferView" : 6,
            "componentType" : 5126,
            "count" : 371,
            "type" : "VEC2"
        },
        {
            "bufferView" : 7,
            "componentType" : 5123,
            "count" : 624,
            "type" : "SCALAR"
        },
        {
            "bufferView" : 8,
            "componentType" : 5126,
            "count" : 273,
            "max" : [
                1.4128433465957642,
                0.12261971831321716,
                1.4128433465957642
            ],
            "min" : [
                -0.9175993204116821,
                -0.12261971831321716,
                -0.9175993204116821
            ],
            "type" : "VEC3"
        },
        {
            "bufferView" : 9,
            "componentType" : 5126,
            "count" : 273,
            "type" : "VEC3"
        },
        {
            "bufferView" : 10,
            "componentType" : 5126,
            "count" : 273,
            "type" : "VEC2"
        },
        {
            "bufferView" : 11,
            "componentType" : 5123,
            "count" : 549,
            "type" : "SCALAR"
        },
        {
            "bufferView" : 12,
            "componentType" : 5126,
            "count" : 336,
            "max" : [
                1,
                0.1226196214556694,
                0.9999999403953552
            ],
            "min" : [
                -1,
                -0.12261968106031418,
                -0.9999999403953552
            ],
            "type" : "VEC3"
        },
        {
            "bufferView" : 13,
            "componentType" : 5126,
            "count" : 336,
            "type" : "VEC3"
        },
        {
            "bufferView" : 14,
            "componentType" : 5126,
            "count" : 336,
            "type" : "VEC2"
        },
        {
            "bufferView" : 15,
            "componentType" : 5123,
            "count" : 636,
            "type" : "SCALAR"
        }
    ],
    "bufferViews" : [
        {
            "buffer" : 0,
            "byteLength" : 7644,
            "byteOffset" : 0
        },
        {
            "buffer" : 0,
            "byteLength" : 7644,
            "byteOffset" : 7644
        },
        {
            "buffer" : 0,
            "byteLength" : 5096,
            "byteOffset" : 15288
        },
        {
            "buffer" : 0,
            "byteLength" : 6912,
            "byteOffset" : 20384
        },
        {
            "buffer" : 0,
            "byteLength" : 4452,
            "byteOffset" : 27296
        },
        {
            "buffer" : 0,
            "byteLength" : 4452,
            "byteOffset" : 31748
        },
        {
            "buffer" : 0,
            "byteLength" : 2968,
            "byteOffset" : 36200
        },
        {
            "buffer" : 0,
            "byteLength" : 1248,
            "byteOffset" : 39168
        },
        {
            "buffer" : 0,
            "byteLength" : 3276,
            "byteOffset" : 40416
        },
        {
            "buffer" : 0,
            "byteLength" : 3276,
            "byteOffset" : 43692
        },
        {
            "buffer" : 0,
            "byteLength" : 2184,
            "byteOffset" : 46968
        },
        {
            "buffer" : 0,
            "byteLength" : 1098,
            "byteOffset" : 49152
        },
        {
            "buffer" : 0,
            "byteLength" : 4032,
            "byteOffset" : 50252
        },
        {
            "buffer" : 0,
            "byteLength" : 4032,
            "byteOffset" : 54284
        },
        {
            "buffer" : 0,
            "byteLength" : 2688,
            "byteOffset" : 58316
        },
        {
            "buffer" : 0,
            "byteLength" : 1272,
            "byteOffset" : 61004
        }
    ],
    "buffers" : [
        {
            "byteLength" : 62276,
            "uri" : "data:application/octet-stream;base64,"
        }
    ]
}
